<?xml version="1.0" standalone="no"?><!DOCTYPE svg PUBLIC "-//W3C//DTD SVG 1.1//EN" "http://www.w3.org/Graphics/SVG/1.1/DTD/svg11.dtd"><svg t="1537869598602" class="icon" style="" viewBox="0 0 1024 1024" version="1.1" xmlns="http://www.w3.org/2000/svg" p-id="2567" xmlns:xlink="http://www.w3.org/1999/xlink" width="200" height="200"><defs><style type="text/css"></style></defs><path d="M923.636175 903.695007 730.301911 787.454586c-5.468548-3.28686-12.187577-3.762697-18.065448-1.26583l-234.355539 99.444896L114.366747 595.344197c-8.608052-6.874571-21.155832-5.466502-28.027333 3.139503-6.873548 8.606005-5.467525 21.155832 3.13848 28.028357l145.395438 116.107391L88.24174 880.858906c-8.013511 7.556093-8.385994 20.176528-0.830925 28.190039 3.924379 4.163833 9.212826 6.262634 14.514575 6.262634 4.906753 0 9.82374-1.798972 13.676487-5.431709l150.750399-142.123928 195.931415 156.462494c5.724375 4.569062 13.493316 5.63944 20.234857 2.77316l235.94371-100.119255 184.624904 111.00314c3.215228 1.934049 6.757914 2.855024 10.255575 2.855024 6.767124-0.002047 13.369495-3.447519 17.110703-9.671267C936.12665 921.623331 933.075151 909.370263 923.636175 903.695007z" p-id="2568"></path><path d="M131.482567 602.283236c16.705474 14.33345 37.546128 22.024619 59.328223 22.024619 2.357697 0 4.725628-0.091074 7.101745-0.272199 50.212612-3.838422 87.940888-47.810912 84.10349-98.021477-3.835352-50.210565-47.798633-87.949075-98.020454-84.105536-24.323988 1.858324-46.468334 13.078877-62.353117 31.591509-15.885805 18.514679-23.610744 42.107003-21.75242 66.428945C101.748359 564.252061 112.967888 586.397431 131.482567 602.283236zM151.911852 499.470639c8.947789-10.428513 21.421892-16.748453 35.121915-17.794271 1.327228-0.101307 2.645247-0.151449 3.955078-0.151449 26.602891 0 49.199539 20.571525 51.258431 47.526433 0.001023 0 0.001023 0 0.001023 0 2.161223 28.28316-19.0908 53.05331-47.374984 55.215556-13.701047 1.030469-26.991748-3.305279-37.419238-12.254092-10.428513-8.946766-16.748453-21.420869-17.795295-35.122939C138.611941 523.18883 142.964062 509.899152 151.911852 499.470639z" p-id="2569"></path><path d="M297.392224 408.300196c10.592242 3.036149 21.63167-3.082198 24.669866-13.668301 2.01489-7.018857 26.181289-50.438763 73.4038-36.884049 42.234917 12.117992 39.740096 71.433936 39.616276 73.887824-0.548492 9.612938 5.849218 18.24555 15.20633 20.516266 9.360182 2.27481 18.999726-2.466168 22.918989-11.261485 0.060375-0.135076 6.424316-13.924127 19.451004-25.703405 16.696264-15.09479 35.623335-19.333324 57.864896-12.950963 21.023826 6.03239 33.106002 18.262946 36.937261 37.389562 2.137687 10.67513 1.190105 20.869307 0.296759 26.572192l-95.54303 250.955612L349.400738 594.615603c-12.279674-10.538007-27.935236-15.650445-44.062542-14.428617-16.133446 1.233084-30.819936 8.676613-41.35692 20.955264-21.74935 25.348318-18.821671 63.666018 6.526647 85.417415l177.445388 152.253636c11.405771 9.785877 25.436322 14.576997 39.402405 14.576997 7.638981 0 15.255449-1.443885 22.415522-4.27742 1.859347-0.251733 3.714602-0.760317 5.513574-1.569752l205.64873-92.40148 169.446203 93.113701c3.047406 1.675152 6.339382 2.469238 9.587356 2.469238 7.040347 0 13.863752-3.737114 17.494443-10.341532 5.304819-9.653871 1.779529-21.779026-7.872295-27.081799l-178.157609-97.900727c-5.487991-3.016707-12.068873-3.27765-17.778922-0.713244l-165.832909 74.511018c-0.955768-15.807011-8.037047-31.227212-20.976754-42.330084l-2.462075-2.113127 97.819886-256.935814c0.852414-1.165546 1.603521-2.426259 2.204202-3.799536 0.064468-0.148379 6.576789-14.846126 19.556405-26.8843 15.564487-14.435781 33.070186-18.600637 53.518914-12.734022 20.240997 5.807263 32.473599 18.364253 37.390585 38.385239 4.133134 16.826224 1.39272 32.519648 1.38044 32.582069-1.879813 9.882068 3.9121 19.575848 13.486152 22.665209 9.56075 3.092431 19.963681-1.472538 24.215518-10.590196 1.026376-2.201132 25.64303-53.738925 71.239508-40.660048 45.88505 13.166881 40.410362 70.555939 40.162722 72.910567-1.153266 10.181897 5.595438 19.577894 15.611559 21.74014 1.412163 0.303922 2.824325 0.452301 4.216022 0.452301 8.487302-0.002047 16.263405-5.447059 18.96698-13.821797 0.778736-2.410909 18.974144-59.905368 12.345166-135.429459-6.163373-70.214155-35.773761-169.737846-141.834332-245.135046-8.977465-6.383384-21.428032-4.275373-27.808346 4.699022-6.382361 8.977465-4.276397 21.427008 4.699022 27.808346C846.314135 273.154193 888.397602 345.376075 896.636241 434.665681c1.25969 13.648858 1.595334 26.694989 1.326205 38.829354-10.973936-11.775184-25.00244-20.237927-41.766242-25.047466-30.493501-8.751315-59.491952-2.418073-84.326571 18.297738-8.077979-25.39232-26.495444-50.095955-63.386656-60.680011-35.44221-10.171664-63.806211-0.277316-84.492346 15.70161-9.016351-28.452006-30.817889-48.787146-62.467727-57.867966-40.161698-11.524474-71.567989 1.170662-93.345991 19.614733-10.459213-33.370015-31.745005-55.505152-61.711504-64.103993-19.576871-5.617951-37.391608-5.15644-53.042053-0.913812 38.239929-67.692728 97.758488-112.497167 177.741124-133.602857 81.578993-21.527292 155.094334-9.355065 155.802462-9.234315 10.034541 1.74269 19.772322-4.357238 22.582321-14.148231l15.578814-54.298673c3.038196-10.586103-3.083222-21.630646-13.669324-24.668843-10.579963-3.032056-21.630646 3.084245-24.668843 13.669324l-10.871605 37.895075c-28.619828-2.76702-88.027869-5.169743-153.507186 11.848862-84.045161 21.842471-193.679118 80.807421-238.688217 237.676168C280.68675 394.217457 286.806121 405.262 297.392224 408.300196zM473.92687 808.543903 296.481482 656.290267c-8.658194-7.429203-9.660011-20.519336-2.229784-29.17753 3.598968-4.194532 8.615215-6.736425 14.125719-7.157004 0.538259-0.040932 1.075495-0.062422 1.609661-0.062422 4.935406 0 9.655917 1.74269 13.441127 4.989641l177.445388 152.253636c8.658194 7.429203 9.660011 20.519336 2.230808 29.17753-3.599991 4.194532-8.616238 6.736425-14.127765 7.157004C483.455897 813.895795 478.121402 812.140825 473.92687 808.543903z" p-id="2570"></path></svg>