<?xml version="1.0" standalone="no"?>
<!DOCTYPE svg PUBLIC "-//W3C//DTD SVG 20010904//EN"
 "http://www.w3.org/TR/2001/REC-SVG-20010904/DTD/svg10.dtd">
<svg version="1.0" xmlns="http://www.w3.org/2000/svg"
 width="1200.000000pt" height="444.000000pt" viewBox="0 0 1200.000000 444.000000"
 preserveAspectRatio="xMidYMid meet">

<g transform="translate(0.000000,444.000000) scale(0.100000,-0.100000)"
fill="#000000" stroke="none">
<path d="M776 3145 c-47 -17 -94 -59 -112 -102 -12 -27 -14 -179 -14 -860 0
-822 0 -827 21 -871 13 -26 38 -54 62 -70 l41 -27 833 -3 c801 -2 836 -2 877
17 24 10 56 36 72 57 l29 37 3 849 c2 830 2 849 -18 887 -23 46 -59 74 -115
90 -28 8 -284 11 -840 11 -653 -1 -807 -3 -839 -15z m1058 -350 c133 -22 255
-150 290 -305 19 -80 21 -236 5 -312 -26 -127 -110 -239 -219 -295 -50 -25
-65 -28 -160 -28 -95 0 -110 3 -156 27 -29 15 -68 43 -88 61 l-36 34 0 -228 0
-229 -145 0 -145 0 0 630 0 630 145 0 145 0 0 -51 0 -51 40 35 c52 48 107 75
172 86 52 9 76 8 152 -4z"/>
<path d="M1577 2556 c-62 -17 -116 -61 -146 -121 -21 -39 -24 -59 -23 -123 1
-43 -3 -117 -9 -165 -6 -49 -9 -90 -7 -92 2 -2 31 14 64 36 l61 39 43 -15
c154 -54 310 58 310 224 0 144 -151 256 -293 217z"/>
<path d="M3320 2662 l-95 -17 -3 -547 -2 -548 95 0 95 0 0 156 c0 121 3 155
13 152 88 -33 124 -40 195 -36 223 11 353 183 340 453 -10 194 -88 314 -246
379 -67 27 -264 31 -392 8z m332 -174 c26 -14 54 -41 72 -72 27 -43 31 -59 34
-145 6 -150 -24 -226 -108 -269 -37 -19 -55 -22 -103 -18 -31 3 -75 15 -97 26
l-40 20 0 240 0 239 28 4 c63 12 172 -1 214 -25z"/>
<path d="M4220 2662 l-95 -17 -3 -547 -2 -548 95 0 95 0 0 156 c0 121 3 155
13 152 88 -33 124 -40 195 -36 223 11 353 183 340 453 -10 194 -88 314 -246
379 -67 27 -264 31 -392 8z m332 -174 c26 -14 54 -41 72 -72 27 -43 31 -59 34
-145 6 -150 -24 -226 -108 -269 -37 -19 -55 -22 -103 -18 -31 3 -75 15 -97 26
l-40 20 0 240 0 239 28 4 c63 12 172 -1 214 -25z"/>
<path d="M5130 2662 l-95 -17 -3 -402 -2 -403 95 0 95 0 0 334 0 333 69 7
c111 11 158 -8 187 -77 15 -36 18 -83 22 -319 l4 -278 95 0 94 0 -4 298 c-2
163 -7 306 -11 318 -6 17 -1 23 35 39 49 23 144 26 181 7 13 -8 33 -28 44 -45
17 -29 19 -57 22 -324 l3 -293 100 0 101 0 -4 303 c-4 264 -7 309 -23 357 -27
76 -95 143 -166 164 -100 30 -231 16 -333 -36 l-38 -20 -62 34 c-59 32 -65 33
-186 35 -83 1 -157 -4 -220 -15z"/>
<path d="M6572 2660 c-110 -40 -190 -124 -233 -245 -32 -87 -32 -234 -1 -332
41 -132 144 -224 283 -253 75 -16 234 -9 317 15 51 14 62 21 62 39 0 25 -18
137 -23 142 -2 2 -28 -6 -58 -18 -81 -32 -226 -32 -292 1 -55 27 -91 75 -105
139 l-10 42 276 0 275 0 -6 98 c-8 137 -35 217 -97 285 -68 74 -128 100 -245
104 -70 2 -102 -2 -143 -17z m207 -160 c36 -19 73 -78 79 -125 l5 -45 -173 0
-173 0 6 36 c15 93 99 159 189 150 26 -3 56 -10 67 -16z"/>
<path d="M7375 2670 c-99 -24 -166 -81 -190 -162 -19 -64 -19 -82 0 -144 19
-64 70 -114 160 -154 39 -17 96 -43 129 -58 95 -43 120 -96 70 -143 -24 -22
-33 -24 -127 -23 -76 1 -117 7 -161 23 -41 14 -62 18 -66 10 -9 -14 -33 -149
-28 -155 18 -17 174 -44 257 -44 227 0 341 80 341 239 -1 138 -57 196 -267
275 -100 38 -123 58 -123 106 0 48 25 68 96 76 45 6 171 -8 207 -22 11 -4 19
11 32 65 9 38 14 74 11 80 -19 30 -258 52 -341 31z"/>
<path d="M8065 2670 c-99 -24 -166 -81 -190 -162 -19 -64 -19 -82 0 -144 19
-64 70 -114 160 -154 39 -17 96 -43 129 -58 95 -43 120 -96 70 -143 -24 -22
-33 -24 -127 -23 -76 1 -117 7 -161 23 -41 14 -62 18 -66 10 -9 -14 -33 -149
-28 -155 18 -17 174 -44 257 -44 227 0 341 80 341 239 -1 138 -57 196 -267
275 -100 38 -123 58 -123 106 0 48 25 68 96 76 45 6 171 -8 207 -22 11 -4 19
11 32 65 9 38 14 74 11 80 -19 30 -258 52 -341 31z"/>
<path d="M8690 2663 c-36 -8 -69 -18 -73 -22 -4 -4 -2 -40 4 -80 11 -66 14
-72 33 -67 52 15 189 28 230 22 79 -12 126 -70 126 -155 l0 -39 -37 10 c-58
16 -218 4 -282 -20 -111 -43 -169 -136 -158 -254 15 -165 123 -238 353 -238
88 0 239 18 297 36 18 6 18 22 14 307 -3 223 -7 312 -18 342 -7 22 -36 63 -64
91 -40 40 -62 54 -111 67 -75 21 -224 21 -314 0z m283 -469 l37 -7 0 -102 0
-102 -37 -7 c-97 -15 -189 -1 -223 36 -22 24 -28 95 -10 128 25 47 129 71 233
54z"/>
<path d="M9618 2661 c-72 -23 -117 -51 -163 -103 -136 -150 -135 -443 2 -583
83 -84 239 -118 367 -81 32 10 61 15 64 12 2 -3 0 -31 -7 -63 -17 -87 -64
-127 -163 -139 -59 -7 -174 8 -240 31 -27 9 -45 11 -49 4 -11 -19 -30 -142
-22 -150 20 -19 128 -41 225 -46 226 -12 362 51 420 195 22 56 23 66 26 478
l3 422 -48 11 c-165 37 -322 41 -415 12z m226 -147 l46 -7 0 -214 0 -214 -33
-14 c-98 -41 -199 -25 -256 40 -55 63 -65 208 -21 301 46 94 125 127 264 108z"/>
<path d="M10502 2660 c-110 -40 -190 -124 -233 -245 -32 -87 -32 -234 -1 -332
41 -132 144 -224 283 -253 75 -16 234 -9 317 15 51 14 62 21 62 39 0 25 -18
137 -23 142 -2 2 -28 -6 -58 -18 -81 -32 -226 -32 -292 1 -55 27 -91 75 -105
139 l-10 42 276 0 275 0 -6 98 c-8 137 -35 217 -97 285 -68 74 -128 100 -245
104 -70 2 -102 -2 -143 -17z m207 -160 c36 -19 73 -78 79 -125 l5 -45 -173 0
-173 0 6 36 c15 93 99 159 189 150 26 -3 56 -10 67 -16z"/>
</g>
</svg>
